<?xml version="1.0" encoding="UTF-8" standalone="no"?>
<!DOCTYPE svg PUBLIC "-//W3C//DTD SVG 1.1//EN" "http://www.w3.org/Graphics/SVG/1.1/DTD/svg11.dtd">
<svg xmlns="http://www.w3.org/2000/svg" version="1.1" viewBox="0.00 0.00 420.00 593.00">
<g stroke-width="2.00" fill="none" stroke-linecap="butt">
<path stroke="#ffeedf" vector-effect="non-scaling-stroke" d="
  M 209.76 257.05
  L 209.29 257.26
  Q 208.84 257.47 209.19 257.82
  L 209.42 258.04
  A 0.95 0.92 -68.1 0 1 209.69 258.70
  L 209.73 310.46"
/>
<path stroke="#ffeedf" vector-effect="non-scaling-stroke" d="
  M 210.01 363.42
  Q 210.03 363.68 209.73 363.77
  Q 209.41 363.85 209.45 364.18
  Q 209.60 365.61 209.63 368.00
  C 209.93 390.59 209.76 410.61 210.17 430.97
  Q 210.32 438.74 209.92 446.92"
/>
<path stroke="#ffeedf" vector-effect="non-scaling-stroke" d="
  M 210.36 502.48
  C 209.16 504.53 210.01 507.34 209.99 508.94
  Q 209.73 532.54 209.64 556.17
  Q 209.64 556.83 210.30 556.75
  Q 211.88 556.56 213.06 555.44
  A 0.91 0.89 22.6 0 1 213.72 555.18
  C 216.65 555.21 219.28 553.74 221.17 553.22
  C 263.41 541.63 305.68 530.05 347.79 518.12
  Q 348.27 517.99 348.36 517.50
  Q 348.99 514.15 349.29 510.75
  Q 365.22 331.29 381.16 151.94
  A 0.42 0.42 0.0 0 0 380.74 151.48
  L 210.45 151.54
  Q 209.83 151.54 209.83 152.16
  L 209.74 203.95"
/>
</g>
<path fill="#ffe7d4" d="
  M 98.74 0.00
  L 162.35 0.00
  L 162.47 25.53
  A 0.97 0.97 0.0 0 1 161.50 26.50
  L 126.53 26.50
  A 1.28 1.28 0.0 0 0 125.25 27.78
  L 125.25 51.97
  A 1.28 1.28 0.0 0 0 126.53 53.25
  L 161.25 53.25
  A 1.00 1.00 0.0 0 1 162.25 54.25
  L 162.25 79.13
  A 0.69 0.69 0.0 0 1 161.56 79.82
  L 100.50 79.72
  A 1.85 1.85 0.0 0 1 98.65 77.87
  L 98.74 0.00
  Z"
/>
<path fill="#ffe7d4" d="
  M 175.04 0.00
  L 238.90 0.00
  L 238.83 22.17
  A 0.83 0.83 0.0 0 1 238.00 23.00
  L 202.56 23.00
  Q 201.88 23.00 201.86 23.69
  L 201.75 27.15
  Q 201.74 27.75 202.34 27.75
  L 238.00 27.75
  A 0.75 0.75 0.0 0 1 238.75 28.50
  L 238.75 79.50
  Q 238.75 81.00 237.25 81.00
  L 176.38 80.75
  Q 175.02 80.75 175.02 79.39
  L 174.99 57.79
  A 1.04 1.04 0.0 0 1 176.03 56.75
  L 211.59 56.75
  Q 212.24 56.75 212.24 56.10
  L 212.24 52.93
  A 0.93 0.93 0.0 0 0 211.31 52.00
  L 176.50 52.00
  A 1.47 1.47 0.0 0 1 175.03 50.53
  L 175.04 0.00
  Z"
/>
<path fill="#ffe7d4" d="
  M 251.20 0.00
  L 315.18 0.00
  L 315.48 22.26
  A 0.78 0.78 0.0 0 1 314.70 23.05
  L 278.87 22.98
  Q 278.03 22.97 278.03 23.82
  L 278.03 27.17
  Q 278.03 27.75 278.61 27.75
  L 314.60 27.75
  A 0.42 0.42 0.0 0 1 315.02 28.17
  L 315.03 79.60
  A 1.39 1.38 -90.0 0 1 313.65 80.99
  L 253.25 80.99
  Q 251.50 80.99 251.50 79.24
  L 251.50 57.50
  A 0.75 0.75 0.0 0 1 252.25 56.75
  L 287.74 56.75
  A 0.78 0.78 0.0 0 0 288.52 55.95
  L 288.45 52.81
  A 0.83 0.82 89.3 0 0 287.63 52.00
  L 252.54 52.00
  A 1.01 1.01 0.0 0 1 251.53 51.00
  L 251.20 0.00
  Z"
/>
<path fill="#ffe7d4" d="
  M 210.44 593.00
  L 208.70 593.00
  Q 208.17 592.47 207.30 592.22
  Q 123.84 568.75 39.98 545.66
  A 2.40 2.39 5.1 0 1 38.23 543.57
  Q 22.25 364.63 6.18 185.26
  Q 2.74 146.88 1.39 130.06
  Q 0.96 124.69 0.00 120.93
  L 0.00 116.63
  C 8.95 116.27 20.04 116.74 26.75 116.75
  Q 109.78 116.79 192.82 116.41
  C 193.80 116.41 195.23 116.85 196.50 116.84
  Q 283.87 116.11 329.25 116.59
  Q 377.42 117.10 396.81 116.65
  Q 409.86 116.35 419.10 116.83
  Q 419.63 116.86 419.71 117.39
  C 419.94 118.92 419.23 120.35 419.12 121.54
  Q 400.09 332.38 381.41 543.93
  A 1.78 1.76 85.1 0 1 380.11 545.49
  Q 296.55 568.35 213.45 591.71
  Q 211.44 592.27 210.44 593.00
  Z
  M 209.74 203.95
  L 79.48 204.00
  Q 77.97 204.00 78.10 205.51
  L 82.56 255.75
  A 1.42 1.41 -2.7 0 0 83.97 257.03
  L 209.76 257.05
  L 209.29 257.26
  Q 208.84 257.47 209.19 257.82
  L 209.42 258.04
  A 0.95 0.92 -68.1 0 1 209.69 258.70
  L 209.73 310.46
  L 88.43 310.49
  A 0.96 0.96 0.0 0 0 87.47 311.54
  L 91.96 361.94
  A 1.55 1.54 -2.6 0 0 93.50 363.34
  L 209.45 363.28
  Q 209.64 363.28 209.78 363.41
  Q 209.98 363.58 210.01 363.42
  Q 210.03 363.68 209.73 363.77
  Q 209.41 363.85 209.45 364.18
  Q 209.60 365.61 209.63 368.00
  C 209.93 390.59 209.76 410.61 210.17 430.97
  Q 210.32 438.74 209.92 446.92
  L 152.43 431.58
  A 1.81 1.81 0.0 0 1 151.10 429.99
  L 147.67 390.62
  A 1.23 1.22 87.4 0 0 146.45 389.50
  L 95.23 389.50
  A 0.71 0.70 87.4 0 0 94.53 390.27
  L 101.69 471.51
  Q 101.76 472.32 102.74 472.59
  L 210.36 502.48
  C 209.16 504.53 210.01 507.34 209.99 508.94
  Q 209.73 532.54 209.64 556.17
  Q 209.64 556.83 210.30 556.75
  Q 211.88 556.56 213.06 555.44
  A 0.91 0.89 22.6 0 1 213.72 555.18
  C 216.65 555.21 219.28 553.74 221.17 553.22
  C 263.41 541.63 305.68 530.05 347.79 518.12
  Q 348.27 517.99 348.36 517.50
  Q 348.99 514.15 349.29 510.75
  Q 365.22 331.29 381.16 151.94
  A 0.42 0.42 0.0 0 0 380.74 151.48
  L 210.45 151.54
  Q 209.83 151.54 209.83 152.16
  L 209.74 203.95
  Z"
/>
<path fill="#fff4ea" d="
  M 210.36 502.48
  L 316.80 472.30
  A 0.92 0.91 -3.2 0 0 317.44 471.59
  Q 318.00 468.31 318.29 465.00
  Q 329.92 334.77 341.42 205.06
  A 0.93 0.92 -87.4 0 0 340.50 204.05
  L 209.74 203.95
  L 209.83 152.16
  Q 209.83 151.54 210.45 151.54
  L 380.74 151.48
  A 0.42 0.42 0.0 0 1 381.16 151.94
  Q 365.22 331.29 349.29 510.75
  Q 348.99 514.15 348.36 517.50
  Q 348.27 517.99 347.79 518.12
  C 305.68 530.05 263.41 541.63 221.17 553.22
  C 219.28 553.74 216.65 555.21 213.72 555.18
  A 0.91 0.89 22.6 0 0 213.06 555.44
  Q 211.88 556.56 210.30 556.75
  Q 209.64 556.83 209.64 556.17
  Q 209.73 532.54 209.99 508.94
  C 210.01 507.34 209.16 504.53 210.36 502.48
  Z"
/>
<path fill="#fff4ea" d="
  M 209.73 310.46
  L 209.69 258.70
  A 0.95 0.92 -68.1 0 0 209.42 258.04
  L 209.19 257.82
  Q 208.84 257.47 209.29 257.26
  L 209.76 257.05
  L 281.01 257.03
  Q 283.43 257.03 283.21 259.44
  L 278.73 308.25
  A 2.25 2.25 0.0 0 1 276.49 310.29
  L 209.73 310.46
  Z"
/>
<path fill="#fff4ea" d="
  M 209.92 446.92
  Q 210.32 438.74 210.17 430.97
  C 209.76 410.61 209.93 390.59 209.63 368.00
  Q 209.60 365.61 209.45 364.18
  Q 209.41 363.85 209.73 363.77
  Q 210.03 363.68 210.01 363.42
  L 272.23 363.35
  A 1.68 1.68 0.0 0 1 273.91 365.18
  L 268.19 428.58
  A 3.55 3.54 -5.1 0 1 265.59 431.68
  L 209.92 446.92
  Z"
/>
</svg>
