<?xml version="1.0" encoding="UTF-8" standalone="no"?>
<!DOCTYPE svg PUBLIC "-//W3C//DTD SVG 1.1//EN" "http://www.w3.org/Graphics/SVG/1.1/DTD/svg11.dtd">
<svg xmlns="http://www.w3.org/2000/svg" version="1.1" viewBox="0.00 0.00 431.00 579.00">
<g stroke-width="2.00" fill="none" stroke-linecap="butt">
<path stroke="#ffeedf" vector-effect="non-scaling-stroke" d="
  M 213.17 351.20
  L 213.40 435.78"
/>
<path stroke="#ffeedf" vector-effect="non-scaling-stroke" d="
  M 213.09 485.28
  L 213.19 536.42
  A 2.70 2.70 0.0 0 0 216.50 539.04
  Q 279.36 524.67 341.74 509.48
  C 344.38 508.84 345.54 508.86 346.02 505.76
  C 352.30 465.29 353.88 424.49 357.67 383.79
  Q 362.89 327.63 368.49 271.50
  C 371.50 241.34 373.55 194.80 378.50 155.41
  A 1.57 1.53 34.8 0 0 378.32 154.48
  Q 376.83 151.78 373.75 151.78
  C 321.13 151.73 268.74 150.88 215.91 151.58
  A 2.44 2.44 0.0 0 0 213.51 154.01
  L 213.29 201.35"
/>
<path stroke="#ffeedf" vector-effect="non-scaling-stroke" d="
  M 213.34 307.93
  L 213.23 249.20"
/>
</g>
<path fill="#ffe7d4" d="
  M 43.04 0.00
  L 75.27 0.00
  L 75.27 19.53
  A 2.47 2.47 0.0 0 0 77.74 22.00
  L 89.93 22.00
  A 2.32 2.32 0.0 0 0 92.25 19.78
  L 93.09 0.00
  L 125.01 0.00
  L 125.00 78.68
  A 1.64 1.63 87.3 0 1 123.52 80.31
  Q 108.50 81.75 93.52 80.30
  A 1.89 1.88 1.8 0 1 91.81 78.50
  Q 91.49 70.29 91.45 61.73
  C 91.41 51.80 81.23 50.87 76.10 56.87
  A 1.41 1.38 66.5 0 0 75.76 57.76
  L 75.21 79.25
  Q 75.17 80.62 73.81 80.74
  Q 61.92 81.85 49.98 81.76
  Q 43.22 81.71 43.18 74.69
  Q 42.94 37.34 43.04 0.00
  Z"
/>
<path fill="#ffe7d4" d="
  M 133.39 0.00
  L 207.80 0.00
  Q 209.55 7.20 210.33 16.18
  C 211.43 28.81 199.00 28.18 190.49 27.68
  A 2.59 2.58 1.7 0 0 187.75 30.26
  L 187.75 78.22
  A 2.53 2.53 0.0 0 1 185.22 80.75
  L 157.33 80.75
  A 2.20 2.20 0.0 0 1 155.13 78.57
  L 154.63 29.88
  A 2.21 2.21 0.0 0 0 152.34 27.70
  Q 144.52 28.00 136.58 27.17
  C 132.77 26.77 132.03 23.81 132.16 20.34
  Q 132.52 10.15 133.39 0.00
  Z"
/>
<path fill="#ffe7d4" d="
  M 213.02 0.00
  L 247.54 0.00
  C 251.14 5.81 255.90 14.03 261.32 18.18
  A 1.12 1.09 -32.3 0 0 262.27 18.38
  C 264.53 17.81 265.62 16.31 266.40 13.90
  Q 269.50 4.29 278.88 0.00
  L 306.18 0.00
  Q 307.45 41.40 307.21 78.50
  C 307.19 81.25 305.25 80.98 302.96 80.99
  Q 290.13 81.04 277.03 80.96
  A 2.00 2.00 0.0 0 1 275.04 78.99
  L 274.67 57.55
  A 0.62 0.62 0.0 0 0 273.62 57.11
  C 269.12 61.38 263.98 69.41 257.08 63.68
  Q 251.90 59.38 247.17 55.44
  A 1.53 1.53 0.0 0 0 244.66 56.73
  L 246.30 77.99
  A 2.80 2.80 0.0 0 1 243.51 81.00
  L 215.53 81.00
  A 2.52 2.52 0.0 0 1 213.01 78.48
  L 213.02 0.00
  Z"
/>
<path fill="#ffe7d4" d="
  M 315.02 0.00
  L 346.87 0.00
  Q 348.25 23.09 347.63 45.97
  A 2.26 2.25 -89.6 0 0 349.91 48.29
  Q 364.06 48.12 378.12 48.38
  C 380.77 48.43 382.48 49.56 382.82 52.18
  Q 384.40 64.10 383.24 76.02
  C 383.00 78.48 381.07 80.78 378.75 80.86
  Q 367.27 81.22 324.00 80.96
  Q 322.11 80.95 318.20 80.58
  C 315.40 80.31 315.00 79.80 315.00 76.94
  Q 314.99 38.47 315.02 0.00
  Z"
/>
<path fill="#ffe7d4" d="
  M 224.29 579.00
  L 200.95 579.00
  L 43.95 536.37
  A 0.85 0.83 -89.1 0 1 43.35 535.73
  Q 42.74 532.95 42.49 530.25
  Q 27.07 369.13 12.33 207.94
  C 11.86 202.80 11.93 195.88 11.45 190.03
  Q 8.33 152.32 7.03 114.50
  Q 6.97 112.82 7.21 112.21
  Q 7.67 111.00 8.97 111.00
  Q 213.21 111.00 417.00 111.00
  C 421.02 111.00 420.37 114.60 420.15 117.24
  Q 416.53 162.36 413.33 207.51
  C 411.20 237.50 408.15 267.34 405.45 297.27
  C 398.46 374.71 390.71 452.08 383.54 529.50
  C 383.16 533.67 381.32 535.92 377.15 537.19
  C 325.48 552.94 276.73 566.46 224.29 579.00
  Z
  M 213.29 201.35
  L 90.90 201.61
  A 1.57 1.56 88.3 0 0 89.34 203.27
  L 98.62 349.69
  A 1.48 1.47 88.1 0 0 100.09 351.07
  L 213.17 351.20
  L 213.40 435.78
  Q 210.69 436.52 206.43 436.12
  Q 189.86 434.57 173.83 430.33
  C 160.33 426.76 151.37 424.63 150.14 408.67
  Q 149.27 397.27 149.00 385.94
  A 1.48 1.48 0.0 0 0 147.52 384.50
  L 107.52 384.50
  Q 106.61 384.50 106.67 385.41
  Q 108.83 418.79 111.30 451.41
  C 111.52 454.41 112.70 455.02 115.22 455.98
  C 145.45 467.57 171.00 477.15 198.76 483.47
  Q 205.37 484.98 213.09 485.28
  L 213.19 536.42
  A 2.70 2.70 0.0 0 0 216.50 539.04
  Q 279.36 524.67 341.74 509.48
  C 344.38 508.84 345.54 508.86 346.02 505.76
  C 352.30 465.29 353.88 424.49 357.67 383.79
  Q 362.89 327.63 368.49 271.50
  C 371.50 241.34 373.55 194.80 378.50 155.41
  A 1.57 1.53 34.8 0 0 378.32 154.48
  Q 376.83 151.78 373.75 151.78
  C 321.13 151.73 268.74 150.88 215.91 151.58
  A 2.44 2.44 0.0 0 0 213.51 154.01
  L 213.29 201.35
  Z"
/>
<path fill="#fff4ea" d="
  M 213.09 485.28
  Q 219.82 485.53 227.43 483.39
  Q 269.40 471.59 311.62 460.48
  Q 312.44 460.26 312.61 459.43
  Q 313.29 456.24 313.61 453.48
  Q 321.20 389.27 328.29 325.00
  Q 329.15 317.24 328.99 309.50
  Q 328.96 308.05 327.50 308.05
  L 213.34 307.93
  L 213.23 249.20
  Q 271.89 248.82 330.50 249.07
  C 333.55 249.08 335.69 247.21 336.13 244.04
  C 338.03 230.51 337.28 216.02 337.24 202.56
  A 1.10 1.10 0.0 0 0 336.14 201.47
  L 213.29 201.35
  L 213.51 154.01
  A 2.44 2.44 0.0 0 1 215.91 151.58
  C 268.74 150.88 321.13 151.73 373.75 151.78
  Q 376.83 151.78 378.32 154.48
  A 1.57 1.53 34.8 0 1 378.50 155.41
  C 373.55 194.80 371.50 241.34 368.49 271.50
  Q 362.89 327.63 357.67 383.79
  C 353.88 424.49 352.30 465.29 346.02 505.76
  C 345.54 508.86 344.38 508.84 341.74 509.48
  Q 279.36 524.67 216.50 539.04
  A 2.70 2.70 0.0 0 1 213.19 536.42
  L 213.09 485.28
  Z"
/>
<path fill="#ffe7d4" d="
  M 213.23 249.20
  L 213.34 307.93
  L 138.73 307.77
  A 2.24 2.24 0.0 0 1 136.49 305.51
  L 137.07 251.73
  Q 137.10 248.91 139.92 248.92
  L 213.23 249.20
  Z"
/>
<path fill="#fff4ea" d="
  M 213.17 351.20
  Q 242.24 351.28 271.16 351.25
  C 275.21 351.25 276.60 352.57 276.65 356.57
  C 276.95 377.31 275.78 398.00 275.79 418.75
  Q 275.79 421.03 272.68 422.32
  C 254.33 429.89 233.37 435.60 213.40 435.78
  L 213.17 351.20
  Z"
/>
</svg>
