<?xml version="1.0" encoding="UTF-8" standalone="no"?>
<!DOCTYPE svg PUBLIC "-//W3C//DTD SVG 1.1//EN" "http://www.w3.org/Graphics/SVG/1.1/DTD/svg11.dtd">
<svg xmlns="http://www.w3.org/2000/svg" version="1.1" viewBox="0.00 0.00 308.00 350.00">
<path stroke="#ffeedf" stroke-width="2.00" fill="none" stroke-linecap="butt" vector-effect="non-scaling-stroke" d="
  M 261.51 174.05
  Q 262.02 172.72 262.17 171.31
  C 262.85 164.70 262.41 157.22 263.80 150.27
  C 264.76 145.46 265.09 139.12 265.44 135.85
  C 267.12 120.51 267.82 106.77 269.48 87.40
  C 269.81 83.49 270.72 78.42 270.94 73.84
  C 271.54 61.40 273.04 49.04 274.09 36.65
  A 0.83 0.83 0.0 0 0 273.26 35.75
  L 155.25 35.75
  A 1.50 1.50 0.0 0 0 153.75 37.25
  L 153.75 317.67
  A 1.56 1.56 0.0 0 0 155.72 319.17
  L 249.48 293.56
  A 2.88 2.87 -5.2 0 0 251.59 291.03
  Q 254.21 260.44 256.59 230.58
  Q 256.66 229.73 257.13 227.48
  C 257.65 224.96 257.13 222.01 257.55 219.67
  Q 258.93 212.07 259.03 204.36
  C 259.09 200.08 259.92 195.52 259.73 190.98
  A 0.24 0.23 -82.7 0 0 259.57 190.77
  Q 259.42 190.72 259.27 190.67
  A 0.35 0.34 -80.7 0 1 259.04 190.34
  Q 258.96 187.77 259.41 185.25
  C 260.09 181.38 260.06 177.78 261.51 174.05"
/>
<path fill="#ffe7d4" d="
  M 301.81 9.94
  L 275.09 308.42
  A 2.35 2.35 0.0 0 1 273.38 310.48
  L 153.99 343.83
  A 3.85 3.85 0.0 0 1 151.95 343.83
  L 32.97 310.36
  A 1.11 0.93 -89.8 0 1 32.28 309.53
  Q 31.01 302.92 30.94 296.33
  C 30.92 294.12 30.35 291.78 30.16 289.31
  Q 28.95 273.26 27.18 257.26
  C 26.88 254.56 27.07 251.84 26.74 249.28
  C 25.49 239.60 24.85 230.05 23.96 220.00
  Q 16.52 136.00 9.11 51.99
  Q 7.26 30.97 4.76 10.92
  Q 4.56 9.25 6.24 9.25
  L 301.18 9.25
  Q 301.87 9.25 301.81 9.94
  Z
  M 261.51 174.05
  Q 262.02 172.72 262.17 171.31
  C 262.85 164.70 262.41 157.22 263.80 150.27
  C 264.76 145.46 265.09 139.12 265.44 135.85
  C 267.12 120.51 267.82 106.77 269.48 87.40
  C 269.81 83.49 270.72 78.42 270.94 73.84
  C 271.54 61.40 273.04 49.04 274.09 36.65
  A 0.83 0.83 0.0 0 0 273.26 35.75
  L 155.25 35.75
  A 1.50 1.50 0.0 0 0 153.75 37.25
  L 153.75 317.67
  A 1.56 1.56 0.0 0 0 155.72 319.17
  L 249.48 293.56
  A 2.88 2.87 -5.2 0 0 251.59 291.03
  Q 254.21 260.44 256.59 230.58
  Q 256.66 229.73 257.13 227.48
  C 257.65 224.96 257.13 222.01 257.55 219.67
  Q 258.93 212.07 259.03 204.36
  C 259.09 200.08 259.92 195.52 259.73 190.98
  A 0.24 0.23 -82.7 0 0 259.57 190.77
  Q 259.42 190.72 259.27 190.67
  A 0.35 0.34 -80.7 0 1 259.04 190.34
  Q 258.96 187.77 259.41 185.25
  C 260.09 181.38 260.06 177.78 261.51 174.05
  Z
  M 111.78 228.04
  Q 111.51 228.08 110.36 227.76
  Q 83.61 220.46 56.46 212.93
  A 0.61 0.61 0.0 0 0 55.68 213.52
  L 55.78 246.28
  Q 55.78 246.91 56.13 247.01
  L 140.17 270.36
  A 0.84 0.84 0.0 0 0 141.24 269.55
  L 141.28 75.39
  Q 141.28 74.75 140.64 74.75
  L 113.50 74.75
  A 0.50 0.50 0.0 0 0 113.00 75.25
  L 113.00 226.75
  Q 113.00 227.90 111.78 228.04
  Z"
/>
<path fill="#fff4ea" d="
  M 261.51 174.05
  C 260.06 177.78 260.09 181.38 259.41 185.25
  Q 258.96 187.77 259.04 190.34
  A 0.35 0.34 -80.7 0 0 259.27 190.67
  Q 259.42 190.72 259.57 190.77
  A 0.24 0.23 -82.7 0 1 259.73 190.98
  C 259.92 195.52 259.09 200.08 259.03 204.36
  Q 258.93 212.07 257.55 219.67
  C 257.13 222.01 257.65 224.96 257.13 227.48
  Q 256.66 229.73 256.59 230.58
  Q 254.21 260.44 251.59 291.03
  A 2.88 2.87 -5.2 0 1 249.48 293.56
  L 155.72 319.17
  A 1.56 1.56 0.0 0 1 153.75 317.67
  L 153.75 37.25
  A 1.50 1.50 0.0 0 1 155.25 35.75
  L 273.26 35.75
  A 0.83 0.83 0.0 0 1 274.09 36.65
  C 273.04 49.04 271.54 61.40 270.94 73.84
  C 270.72 78.42 269.81 83.49 269.48 87.40
  C 267.82 106.77 267.12 120.51 265.44 135.85
  C 265.09 139.12 264.76 145.46 263.80 150.27
  C 262.41 157.22 262.85 164.70 262.17 171.31
  Q 262.02 172.72 261.51 174.05
  Z
  M 194.15 160.29
  Q 193.68 145.06 194.14 129.84
  C 194.32 124.05 193.78 116.28 194.44 109.39
  A 0.65 0.64 -86.6 0 1 195.09 108.81
  L 254.92 109.24
  Q 256.61 109.26 256.75 107.56
  L 259.21 75.91
  A 1.80 1.79 2.2 0 0 257.41 73.97
  L 166.99 74.02
  A 1.74 1.73 -90.0 0 0 165.26 75.76
  L 165.25 200.28
  Q 165.25 201.60 166.55 201.38
  L 223.07 191.55
  A 1.04 1.04 0.0 0 1 224.29 192.62
  L 223.11 220.40
  Q 223.09 221.01 222.52 221.22
  Q 220.75 221.86 218.95 222.33
  Q 192.69 229.23 166.95 236.28
  A 2.34 2.33 -7.7 0 0 165.23 238.53
  L 165.29 268.71
  A 1.37 1.37 0.0 0 0 167.00 270.04
  Q 203.62 260.58 240.13 251.17
  C 243.57 250.29 245.45 250.19 245.73 246.51
  C 248.05 216.28 250.56 185.98 252.46 155.81
  Q 252.54 154.48 251.22 154.65
  Q 226.07 157.78 202.31 160.57
  Q 197.69 161.11 194.85 160.99
  A 0.72 0.72 0.0 0 1 194.15 160.29
  Z"
/>
</svg>
