<?xml version="1.0" encoding="UTF-8" standalone="no"?>
<!DOCTYPE svg PUBLIC "-//W3C//DTD SVG 1.1//EN" "http://www.w3.org/Graphics/SVG/1.1/DTD/svg11.dtd">
<svg xmlns="http://www.w3.org/2000/svg" version="1.1" viewBox="0.00 0.00 500.00 280.00">
<path fill="#ffe7d3" d="
  M 500.00 134.05
  L 500.00 142.12
  C 494.84 196.53 436.96 229.29 391.71 245.12
  C 340.26 263.13 285.72 269.80 231.19 267.89
  Q 170.70 265.77 113.29 246.90
  C 68.40 232.15 4.92 197.89 0.56 144.14
  C -3.37 95.64 42.35 60.46 81.44 42.41
  C 120.64 24.31 162.08 14.41 204.48 10.37
  Q 272.48 3.88 339.00 16.80
  C 397.20 28.11 493.12 63.00 500.00 134.05
  Z
  M 244.12 102.55
  Q 257.82 102.40 271.48 102.52
  Q 281.88 102.61 279.97 112.94
  Q 273.85 146.02 267.54 178.92
  A 0.49 0.49 0.0 0 0 268.02 179.50
  L 301.49 179.50
  A 0.52 0.51 -84.5 0 0 301.99 179.08
  Q 307.85 145.12 313.50 111.55
  Q 314.85 103.57 314.38 99.88
  C 310.85 71.86 268.65 76.18 249.94 76.83
  A 0.91 0.91 0.0 0 1 249.02 75.75
  L 255.68 41.05
  A 0.39 0.39 0.0 0 0 255.30 40.59
  L 223.47 40.77
  Q 222.93 40.77 222.83 41.30
  L 195.67 178.76
  Q 195.53 179.50 196.28 179.50
  L 227.81 179.50
  Q 228.34 179.50 228.45 178.98
  L 243.57 103.00
  Q 243.66 102.55 244.12 102.55
  Z
  M 201.25 106.52
  C 197.60 83.91 176.89 76.47 156.74 76.48
  Q 127.40 76.50 98.00 76.50
  Q 97.49 76.50 97.40 77.00
  L 70.18 214.74
  A 0.64 0.64 0.0 0 0 70.81 215.50
  L 102.27 215.50
  Q 102.82 215.50 102.92 214.96
  L 109.54 180.01
  Q 109.63 179.49 110.17 179.49
  Q 124.26 179.53 138.33 179.49
  Q 149.82 179.46 155.94 178.04
  C 187.59 170.67 206.36 138.16 201.25 106.52
  Z
  M 339.64 179.47
  Q 353.28 179.46 366.92 179.49
  Q 378.51 179.52 384.51 178.22
  C 413.31 171.99 432.14 144.68 431.55 115.95
  C 430.98 87.94 412.96 76.62 386.74 76.56
  Q 346.61 76.46 327.44 76.51
  A 0.60 0.60 0.0 0 0 326.85 77.00
  L 299.66 214.76
  A 0.62 0.62 0.0 0 0 300.27 215.50
  L 331.76 215.50
  Q 332.30 215.50 332.40 214.97
  L 339.02 179.98
  Q 339.12 179.47 339.64 179.47
  Z"
/>
<path fill="#ffe7d3" d="
  M 148.99 102.54
  C 164.28 102.49 169.65 112.11 166.75 126.26
  C 160.89 154.89 141.31 154.13 117.16 153.45
  Q 116.59 153.44 116.68 152.87
  L 125.01 102.79
  Q 125.08 102.39 125.49 102.39
  Q 137.25 102.58 148.99 102.54
  Z"
/>
<path fill="#ffe7d3" d="
  M 354.51 102.50
  Q 354.53 102.38 354.65 102.38
  Q 366.16 102.58 377.75 102.51
  C 400.20 102.36 399.20 120.74 393.36 135.94
  C 385.65 155.98 364.14 153.48 346.57 153.56
  Q 346.02 153.57 346.11 153.02
  L 354.51 102.50
  Z"
/>
</svg>
