<?xml version="1.0" encoding="UTF-8" standalone="no"?>
<!DOCTYPE svg PUBLIC "-//W3C//DTD SVG 1.1//EN" "http://www.w3.org/Graphics/SVG/1.1/DTD/svg11.dtd">
<svg xmlns="http://www.w3.org/2000/svg" version="1.1" viewBox="0.00 0.00 266.00 261.00">
<path fill="#ffe7d3" d="
  M 160.26 7.51
  C 210.45 17.32 249.31 58.42 259.56 107.89
  C 267.21 144.79 256.20 183.35 232.20 211.69
  Q 199.17 250.69 147.02 257.02
  Q 138.92 258.00 118.76 256.74
  Q 104.61 255.85 86.94 248.81
  C 45.14 232.13 12.68 196.57 6.16 151.44
  Q -1.89 95.67 32.84 52.70
  C 54.37 26.04 91.13 6.21 125.74 5.52
  C 137.64 5.29 149.11 5.33 160.26 7.51
  Z
  M 136.50 104.55
  C 129.54 98.03 117.86 88.30 108.43 86.33
  C 95.12 83.55 79.64 89.03 73.56 101.74
  C 65.83 117.92 75.85 129.17 86.55 140.44
  Q 89.64 143.69 90.38 146.30
  C 94.56 161.07 77.34 165.41 67.66 159.33
  C 64.42 157.30 64.55 154.22 66.37 151.02
  C 75.34 135.29 53.09 126.88 50.51 141.14
  C 49.98 144.07 50.26 150.75 52.02 153.44
  C 53.90 156.31 59.61 161.38 63.32 163.32
  C 74.95 169.40 89.16 169.85 100.28 162.86
  C 111.15 156.02 115.52 143.73 109.77 131.82
  C 105.48 122.93 90.26 112.26 91.84 102.64
  C 92.93 96.03 99.63 91.41 106.24 92.50
  C 116.98 94.28 124.75 100.55 133.01 107.84
  C 135.39 109.94 135.47 111.89 134.81 114.77
  C 132.31 125.72 129.22 136.83 127.17 147.50
  C 123.86 164.63 121.43 181.44 114.09 197.45
  Q 110.05 206.27 106.09 210.13
  C 103.70 212.46 92.75 220.22 89.30 216.45
  A 2.17 2.16 46.3 0 1 89.36 213.46
  C 91.61 211.21 93.97 208.89 94.41 205.61
  Q 95.43 198.10 89.01 195.43
  C 73.41 188.97 62.46 211.34 79.78 220.16
  C 91.60 226.17 107.57 220.34 117.54 212.53
  Q 131.16 201.86 138.56 188.12
  Q 149.84 167.15 153.81 143.67
  Q 155.59 133.16 157.82 122.34
  A 2.75 2.75 0.0 0 1 160.45 120.14
  C 173.82 119.78 184.60 119.62 194.10 109.01
  C 209.81 91.47 173.03 84.12 184.31 106.84
  A 2.16 2.16 0.0 0 1 184.02 109.21
  C 178.23 116.02 168.49 115.66 160.37 114.54
  A 0.99 0.99 0.0 0 1 159.53 113.43
  C 161.53 97.71 167.67 54.68 191.15 56.24
  C 193.98 56.43 195.46 58.12 194.52 60.98
  C 191.93 68.81 190.84 77.88 202.44 77.50
  C 210.31 77.25 213.89 69.66 211.87 62.78
  C 209.66 55.21 200.17 52.13 192.95 51.67
  C 170.66 50.24 156.06 67.38 146.20 85.07
  C 142.98 90.85 140.27 97.83 137.58 104.31
  A 0.67 0.67 0.0 0 1 136.50 104.55
  Z"
/>
</svg>
