<?xml version="1.0" encoding="UTF-8" standalone="no"?>
<!DOCTYPE svg PUBLIC "-//W3C//DTD SVG 1.1//EN" "http://www.w3.org/Graphics/SVG/1.1/DTD/svg11.dtd">
<svg xmlns="http://www.w3.org/2000/svg" version="1.1" viewBox="0.00 0.00 511.00 99.00">
<path fill="#ffe7d4" d="
  M 0.00 0.00
  L 8.77 0.00
  Q 10.43 8.16 12.56 16.19
  Q 21.03 48.07 28.14 80.27
  Q 28.40 81.48 29.72 80.78
  A 1.12 1.10 -6.3 0 0 30.26 80.12
  L 53.53 0.00
  L 61.49 0.00
  L 84.43 78.28
  A 1.23 1.23 0.0 0 0 86.52 78.76
  C 88.25 76.86 88.16 73.28 88.61 71.37
  Q 97.06 35.56 105.96 0.00
  L 114.86 0.00
  Q 115.24 2.70 114.75 4.50
  Q 102.04 51.57 90.71 99.00
  L 82.09 99.00
  L 58.33 18.33
  Q 57.63 15.94 56.92 18.32
  L 32.83 99.00
  L 24.37 99.00
  Q 22.31 89.93 16.25 68.25
  Q 11.99 53.02 0.00 2.72
  L 0.00 0.00
  Z"
/>
<path fill="#ffe7d4" d="
  M 131.04 0.00
  L 139.96 0.00
  L 139.90 99.00
  L 131.04 99.00
  L 131.04 0.00
  Z"
/>
<path fill="#ffe7d4" d="
  M 164.03 0.00
  L 172.73 0.00
  Q 174.95 2.63 175.71 3.78
  Q 201.45 42.85 227.29 81.49
  A 0.39 0.39 0.0 0 0 228.00 81.27
  L 228.03 0.00
  L 237.69 0.00
  L 237.74 99.00
  L 229.03 99.00
  L 174.53 17.81
  A 0.84 0.84 0.0 0 0 173.00 18.28
  L 172.98 99.00
  L 164.02 99.00
  L 164.03 0.00
  Z"
/>
<path fill="#ffe7d4" d="
  M 256.03 0.00
  L 290.55 0.00
  C 312.86 2.74 327.43 17.18 330.99 38.75
  Q 332.95 50.65 330.76 61.75
  Q 324.50 93.46 291.58 99.00
  L 256.02 99.00
  L 256.03 0.00
  Z
  M 276.88 18.91
  L 277.10 80.11
  A 1.12 1.12 0.0 0 0 278.22 81.22
  L 289.09 81.18
  A 21.62 20.33 89.8 0 0 309.35 59.49
  L 309.27 39.29
  A 21.62 20.33 89.8 0 0 288.87 17.74
  L 278.00 17.78
  A 1.12 1.12 0.0 0 0 276.88 18.91
  Z"
/>
<path fill="#ffe7d4" d="
  M 345.06 0.00
  L 411.91 0.00
  L 411.96 15.92
  Q 411.96 17.09 410.79 17.15
  C 396.32 17.84 381.22 17.67 366.69 17.30
  Q 366.00 17.28 366.00 17.97
  L 366.00 39.49
  A 0.49 0.49 0.0 0 0 366.49 39.98
  L 403.54 40.04
  Q 405.04 40.04 405.03 41.54
  L 404.94 54.99
  A 1.17 1.17 0.0 0 1 403.77 56.15
  L 366.61 56.27
  Q 366.00 56.28 366.00 56.89
  L 366.00 81.09
  A 0.65 0.65 0.0 0 0 366.66 81.74
  L 410.02 81.52
  A 1.89 1.88 -0.0 0 1 411.92 83.41
  L 411.85 99.00
  L 345.12 99.00
  L 345.06 0.00
  Z"
/>
<path fill="#ffe7d4" d="
  M 420.30 0.00
  L 442.57 0.00
  L 464.31 72.00
  A 0.28 0.28 0.0 0 0 464.85 71.99
  C 470.65 49.25 477.88 26.93 484.77 4.51
  Q 485.67 1.59 486.53 0.00
  L 509.34 0.00
  C 498.18 31.39 487.32 62.90 476.41 94.37
  C 475.85 95.98 476.10 98.45 473.70 99.00
  L 453.71 99.00
  Q 436.81 50.39 419.94 1.52
  Q 419.69 0.81 420.30 0.00
  Z"
/>
<path fill="#ffe7d4" d="
  M 497.81 99.00
  L 494.59 99.00
  C 490.63 97.60 488.30 95.37 488.08 90.97
  Q 487.73 84.00 494.05 82.61
  C 505.16 80.18 507.61 95.17 497.81 99.00
  Z
  M 499.65 90.19
  L 498.40 90.79
  Q 497.89 91.03 498.16 91.53
  L 499.75 94.50
  Q 500.05 95.06 500.53 94.65
  C 503.80 91.82 501.95 88.83 499.86 85.62
  Q 499.53 85.11 498.93 85.00
  L 495.18 84.33
  Q 495.06 84.31 495.02 84.42
  Q 495.01 84.46 495.00 84.50
  Q 494.97 84.67 495.04 84.68
  Q 499.58 84.93 500.09 89.40
  Q 500.15 89.95 499.65 90.19
  Z
  M 494.06 96.57
  C 495.16 98.18 498.05 97.21 498.74 95.84
  Q 499.02 95.29 498.48 95.00
  L 497.85 94.66
  A 1.04 1.02 3.0 0 1 497.40 94.17
  Q 496.85 92.88 495.65 92.31
  Q 495.19 92.10 495.10 92.60
  L 494.76 94.54
  A 0.97 0.97 0.0 0 1 492.84 94.37
  L 492.81 85.72
  A 0.40 0.40 0.0 0 0 492.11 85.46
  Q 487.85 90.30 491.75 95.51
  Q 492.18 96.08 492.89 96.00
  Q 493.09 95.97 493.28 96.02
  Q 493.78 96.15 494.06 96.57
  Z
  M 494.94 87.68
  A 0.91 0.91 0.0 0 0 495.45 89.42
  L 497.80 88.88
  Q 498.30 88.76 497.94 88.40
  Q 496.65 87.08 494.94 87.68
  Z"
/>
</svg>
